<?xml version="1.0" encoding="UTF-8"?><svg id="Layer_1" xmlns="http://www.w3.org/2000/svg" viewBox="0 0 1723.8086 123.3745"><defs><style>.cls-1{fill:#13181b;}</style></defs><path class="cls-1" d="m50.2275,92.6528c-5.3643,4.2251-11.7856,6.3394-19.2622,6.3394-8.6157,0-15.9302-3.4746-21.9438-10.4233C3.0059,81.6196,0,73.269,0,63.5161s3.0059-18.104,9.0215-25.0532c6.0137-6.9487,13.3281-10.4233,21.9438-10.4233,7.5586,0,13.978,2.1143,19.2622,6.3394l-1.0972,1.4629c-5.0405-3.981-11.0942-5.9736-18.165-5.9736-8.0459,0-14.915,3.2725-20.603,9.814-5.6899,6.5435-8.5337,14.4883-8.5337,23.834s2.8438,17.2925,8.5337,23.8335c5.688,6.5435,12.5571,9.814,20.603,9.814,7.0708,0,13.1245-1.9907,18.165-5.9736l1.0972,1.4629Z"/><path class="cls-1" d="m108.7441,32.916l-.9751,1.585-.7314-.4878c-4.145-2.7617-8.29-4.145-12.4351-4.145-3.0898,0-7.0708,1.0781-11.9473,3.231-4.8765,2.1543-8.0884,3.2305-9.6313,3.2305h-1.0972c2.9258,3.1699,4.3887,7.9663,4.3887,14.3857v46.0825h-1.8286v-46.0825c0-4.9565-.813-8.7358-2.438-11.3379-1.2192-1.7866-4.0229-4.4287-8.4121-7.9243l1.2192-1.4629c.5679.4878,1.4629,1.2192,2.6821,2.1943,1.9507,1.5449,3.7793,2.3164,5.4858,2.3164,1.2993,0,4.3892-1.0762,9.2656-3.2305,4.8765-2.1528,8.9795-3.231,12.313-3.231,4.2251,0,8.9395,1.627,14.1416,4.8765Z"/><path class="cls-1" d="m178.8428,57.1768c0,4.8765-2.8042,7.3145-8.4121,7.3145h-38.0361c-2.7642,0-5.1016.9561-7.0103,2.8647-1.9102,1.9106-2.8647,4.248-2.8647,7.0103,0,1.1392.0801,1.9106.2437,2.3164,2.1948,5.9336,5.3643,10.728,9.5093,14.3853,4.7129,4.145,9.9966,6.2178,15.8486,6.2178,7.9644,0,14.5874-2.9263,19.8716-8.7778l1.3408,1.2192c-5.5278,6.2593-12.5986,9.3872-21.2124,9.3872-8.6978,0-15.9307-3.8193-21.7002-11.46-5.2842-7.0708-7.9243-15.1167-7.9243-24.1382,0-9.6714,2.9658-17.9819,8.8994-24.9312,5.9316-6.9487,13.1665-10.4233,21.7002-10.4233,7.4766,0,14.3037,2.9868,20.4814,8.9604,6.1753,5.9736,9.2651,12.6597,9.2651,20.0547Zm-1.8286.1216c0-6.9888-2.9067-13.2881-8.7168-18.896-5.8115-5.6084-12.2119-8.4121-19.2012-8.4121-7.9658,0-14.751,3.2725-20.3594,9.814-5.6079,6.543-8.4116,14.4463-8.4116,23.7119,0,2.6821.2837,5.2021.8535,7.5586.6494-2.4385,2.0303-4.4502,4.145-6.0347,2.1123-1.585,4.4688-2.3774,7.0708-2.3774h38.0361c4.3892,0,6.5835-1.7866,6.5835-5.3643Z"/><path class="cls-1" d="m247.1128,95.8228l-1.0972,1.3408-1.8286-1.4629c-2.5205-2.0308-5.2021-3.0479-8.0464-3.0479-.9751,0-4.126,1.0781-9.4482,3.2305-5.3237,2.1528-10.0996,3.231-14.3247,3.231-7.1523,0-12.9033-1.9258-17.2505-5.772-4.3486-3.8477-6.522-8.73-6.522-14.6465,0-6.644,2.3564-11.6274,7.0708-14.9492,3.981-2.7544,9.1436-4.1318,15.4829-4.1318h6.0952c11.46,0,17.1899-3.5356,17.1899-10.6064v-.1216c0-12.5972-6.2178-18.8965-18.6528-18.8965-6.9907,0-13.8179,2.1143-20.481,6.3394l-.9751-1.4629c7.0708-4.4688,14.2217-6.7051,21.4561-6.7051,6.5835,0,11.6426,1.8286,15.1782,5.4858s5.3032,8.7378,5.3032,15.2393v27.5518c0,5.0405.6494,8.7588,1.9507,11.1553,1.2988,2.3979,4.0229,4.979,8.168,7.7412l.7314.4878Zm-7.8022-4.3892c-3.252-3.4932-4.8765-8.4917-4.8765-14.9951v-20.8467c-2.6821,3.7393-8.4121,5.6079-17.1899,5.6079h-6.0952c-6.0156,0-10.8101,1.2646-14.3857,3.7925-4.2271,3.0176-6.3394,7.5435-6.3394,13.5781,0,5.3828,1.9697,9.8481,5.9126,13.395,3.9414,3.5469,9.2842,5.3203,16.0312,5.3203,4.145,0,8.7969-1.0762,13.959-3.231,5.1606-2.1523,8.4312-3.2305,9.814-3.2305.8936,0,1.9507.2036,3.1699.6094Z"/><path class="cls-1" d="m291.9766,96.7979h-5.4858c-5.2021,0-9.4692-1.3408-12.8008-4.0229-4.3887-3.4136-6.583-8.7358-6.583-15.9707v-43.8882h-18.6528v-1.9507c4.7129,0,8.8179-1.4209,12.313-4.2666,4.2251-3.4937,6.3398-8.5737,6.3398-15.2393V0h1.8286v11.4595c0,7.2349-2.3584,12.8008-7.0713,16.7021-1.5444,1.3008-3.2114,2.2363-4.998,2.8037h35.1104v1.9507h-23.041v43.9243c0,6.5718,1.9502,11.397,5.8516,14.479,3.0059,2.4346,6.9072,3.6499,11.7036,3.6499h5.4858v1.8286Z"/><path class="cls-1" d="m305.8745,11.7036h-1.8286V0h1.8286v11.7036Zm0,85.0942h-1.8286V30.9653h1.8286v65.8325Z"/><path class="cls-1" d="m374.145,30.5977l-23.6509,67.6631-6.0957-2.8037c-3.9829-1.7871-6.583-4.4692-7.8022-8.0464l-19.7495-56.811,1.7065-.6094,19.7495,56.811c1.1372,3.1694,3.4136,5.5278,6.8271,7.0708l4.3887,1.9507,22.9194-65.8325,1.707.6074Z"/><path class="cls-1" d="m443.0244,57.1768c0,4.8765-2.8042,7.3145-8.4121,7.3145h-38.0361c-2.7642,0-5.1016.9561-7.0103,2.8647-1.9102,1.9106-2.8647,4.248-2.8647,7.0103,0,1.1392.0801,1.9106.2437,2.3164,2.1948,5.9336,5.3643,10.728,9.5093,14.3853,4.7129,4.145,9.9966,6.2178,15.8486,6.2178,7.9644,0,14.5874-2.9263,19.8716-8.7778l1.3408,1.2192c-5.5278,6.2593-12.5986,9.3872-21.2124,9.3872-8.6978,0-15.9307-3.8193-21.7002-11.46-5.2842-7.0708-7.9243-15.1167-7.9243-24.1382,0-9.6714,2.9658-17.9819,8.8994-24.9312,5.9316-6.9487,13.1665-10.4233,21.7002-10.4233,7.4766,0,14.3037,2.9868,20.4814,8.9604,6.1753,5.9736,9.2651,12.6597,9.2651,20.0547Zm-1.8286.1216c0-6.9888-2.9067-13.2881-8.7168-18.896-5.8115-5.6084-12.2119-8.4121-19.2012-8.4121-7.9658,0-14.751,3.2725-20.3594,9.814-5.6079,6.543-8.4116,14.4463-8.4116,23.7119,0,2.6821.2837,5.2021.8535,7.5586.6494-2.4385,2.0303-4.4502,4.145-6.0347,2.1123-1.585,4.4688-2.3774,7.0708-2.3774h38.0361c4.3892,0,6.5835-1.7866,6.5835-5.3643Z"/><path class="cls-1" d="m550.3037,95.8228l-1.0972,1.3408-1.8286-1.4629c-2.5205-2.0308-5.2021-3.0479-8.0464-3.0479-.9751,0-4.126,1.0781-9.4482,3.2305-5.3237,2.1528-10.0996,3.231-14.3247,3.231-7.1523,0-12.9033-1.9258-17.2505-5.772-4.3486-3.8477-6.522-8.73-6.522-14.6465,0-6.644,2.3564-11.6274,7.0708-14.9492,3.981-2.7544,9.1436-4.1318,15.4829-4.1318h6.0952c11.46,0,17.1899-3.5356,17.1899-10.6064v-.1216c0-12.5972-6.2178-18.8965-18.6528-18.8965-6.9907,0-13.8179,2.1143-20.481,6.3394l-.9751-1.4629c7.0708-4.4688,14.2217-6.7051,21.4561-6.7051,6.5835,0,11.6426,1.8286,15.1782,5.4858s5.3032,8.7378,5.3032,15.2393v27.5518c0,5.0405.6494,8.7588,1.9507,11.1553,1.2988,2.3979,4.0229,4.979,8.168,7.7412l.7314.4878Zm-7.8022-4.3892c-3.252-3.4932-4.8765-8.4917-4.8765-14.9951v-20.8467c-2.6821,3.7393-8.4121,5.6079-17.1899,5.6079h-6.0952c-6.0156,0-10.8101,1.2646-14.3857,3.7925-4.2271,3.0176-6.3394,7.5435-6.3394,13.5781,0,5.3828,1.9697,9.8481,5.9126,13.395,3.9414,3.5469,9.2842,5.3203,16.0312,5.3203,4.145,0,8.7969-1.0762,13.959-3.231,5.1606-2.1523,8.4312-3.2305,9.814-3.2305.8936,0,1.9507.2036,3.1699.6094Z"/><path class="cls-1" d="m628.4487,30.9673c-4.3892,3.5015-7.1929,6.2271-8.4121,8.1797-1.627,2.686-2.4385,6.5088-2.4385,11.4731v55.542c0,5.6958-2.48,10.0903-7.4365,13.1836-4.4707,2.686-10.1606,4.0288-17.0674,4.0288-9.3472,0-17.9209-2.1943-25.7236-6.583l.8535-1.585.8535.4878c6.8271,3.9009,14.8311,5.8516,24.0166,5.8516,6.6631,0,12.0273-1.2607,16.0923-3.7793,4.3887-2.6821,6.583-6.543,6.583-11.5815,0-2.7642-.813-5.0405-2.438-6.8271-1.627-1.7886-3.9834-2.6821-7.0708-2.6821-.6519,0-2.6021.4058-5.8521,1.2192-3.5771.8936-6.7051,1.3413-9.3872,1.3413-8.6157,0-15.9302-3.4746-21.9438-10.4238-6.0156-6.9487-9.0215-15.3398-9.0215-25.1748,0-10.4844,3.2495-19.0981,9.7529-25.8452,6.2573-6.5015,14.0996-9.7529,23.5288-9.7529,4.8765,0,9.6309.8955,14.2637,2.6821,1.7866.7314,3.5356,1.4629,5.2422,2.1943,2.0308.7314,3.9014,1.0972,5.6079,1.0972,2.3564,0,4.6729-.96,6.9492-2.8818.4058-.3335,1.0552-.8765,1.9507-1.6289l1.0972,1.4648Zm-7.8027,4.8745h-2.1943c-1.8706,0-3.8003-.3848-5.7905-1.1582-1.9927-.7715-3.9224-1.5234-5.791-2.2554-4.4707-1.7065-8.9814-2.5601-13.5322-2.5601-8.8594,0-16.2563,3.0479-22.188,9.1436-6.1772,6.3394-9.2651,14.5493-9.2651,24.626,0,9.3472,2.8438,17.3115,8.5337,23.895,5.688,6.583,12.5571,9.8745,20.603,9.8745,2.0308,0,6.0137-.6895,11.9473-2.0723,1.3813-.3237,2.4785-.4878,3.292-.4878,4.2251,0,7.3945,1.5449,9.5088,4.6328v-48.5781c0-6.5586,1.625-11.5776,4.8765-15.0601Z"/><path class="cls-1" d="m696.5972,57.1768c0,4.8765-2.8042,7.3145-8.4121,7.3145h-38.0361c-2.7642,0-5.1016.9561-7.0103,2.8647-1.9102,1.9106-2.8647,4.248-2.8647,7.0103,0,1.1392.0801,1.9106.2437,2.3164,2.1948,5.9336,5.3643,10.728,9.5093,14.3853,4.7129,4.145,9.9966,6.2178,15.8486,6.2178,7.9644,0,14.5874-2.9263,19.8716-8.7778l1.3408,1.2192c-5.5278,6.2593-12.5986,9.3872-21.2124,9.3872-8.6978,0-15.9307-3.8193-21.7002-11.46-5.2842-7.0708-7.9243-15.1167-7.9243-24.1382,0-9.6714,2.9658-17.9819,8.8994-24.9312,5.9316-6.9487,13.1665-10.4233,21.7002-10.4233,7.4766,0,14.3037,2.9868,20.4814,8.9604,6.1753,5.9736,9.2651,12.6597,9.2651,20.0547Zm-1.8286.1216c0-6.9888-2.9067-13.2881-8.7168-18.896-5.8115-5.6084-12.2119-8.4121-19.2012-8.4121-7.9658,0-14.751,3.2725-20.3594,9.814-5.6079,6.543-8.4116,14.4463-8.4116,23.7119,0,2.6821.2837,5.2021.8535,7.5586.6494-2.4385,2.0303-4.4502,4.145-6.0347,2.1123-1.585,4.4688-2.3774,7.0708-2.3774h38.0361c4.3892,0,6.5835-1.7866,6.5835-5.3643Z"/><path class="cls-1" d="m769.2549,96.7979h-1.8286v-42.5474c0-7.9639-2.3984-14.0996-7.1929-18.4087-4.3091-3.981-9.957-5.9736-16.9458-5.9736-5.1201,0-10.2007,1.0781-15.2393,3.231-5.04,2.1543-8.6973,3.2305-10.9717,3.2305h-2.4385c3.0059,3.3184,4.5107,8.1758,4.5107,14.5703v45.8979h-1.8286v-46.0825c0-4.9565-.8135-8.7358-2.438-11.3379-1.2192-1.7866-4.0234-4.4688-8.4121-8.0464l1.2192-1.3408c3.3315,3.0078,6.4609,4.5107,9.3872,4.5107,1.9502,0,5.4648-1.0762,10.5454-3.2305,5.0781-2.1528,10.3013-3.231,15.6655-3.231,7.4766,0,13.5322,2.1143,18.1646,6.3394,5.2007,4.7148,7.8027,11.3379,7.8027,19.8716v42.5474Z"/><path class="cls-1" d="m833.9888,92.6528c-5.3643,4.2251-11.7856,6.3394-19.2622,6.3394-8.6157,0-15.9302-3.4746-21.9438-10.4233-6.0156-6.9492-9.0215-15.2998-9.0215-25.0527s3.0059-18.104,9.0215-25.0532c6.0137-6.9487,13.3281-10.4233,21.9438-10.4233,7.5586,0,13.978,2.1143,19.2622,6.3394l-1.0972,1.4629c-5.0405-3.981-11.0942-5.9736-18.165-5.9736-8.0459,0-14.915,3.2725-20.603,9.814-5.6899,6.5435-8.5337,14.4883-8.5337,23.834s2.8438,17.2925,8.5337,23.8335c5.688,6.5435,12.5571,9.814,20.603,9.814,7.0708,0,13.1245-1.9907,18.165-5.9736l1.0972,1.4629Z"/><path class="cls-1" d="m898.6006,30.8438l-26.8203,81.4233c-2.1133,6.5112-6.4219,9.7666-12.9224,9.7666h-4.5107v-1.8286h4.5107c5.5259,0,9.2661-2.8042,11.2153-8.4121l1.8301-5.3643-29.3813-75.4634,1.7065-.7314,28.5264,73.3911,24.1387-73.3911,1.707.6099Z"/><path class="cls-1" d="m993.9346,92.6528c-5.3643,4.2251-11.7852,6.3394-19.2617,6.3394-8.6162,0-15.9307-3.4746-21.9443-10.4233-6.0156-6.9492-9.0215-15.2998-9.0215-25.0527s3.0059-18.104,9.0215-25.0532c6.0137-6.9487,13.3281-10.4233,21.9443-10.4233,7.5586,0,13.9775,2.1143,19.2617,6.3394l-1.0977,1.4629c-5.04-3.981-11.0938-5.9736-18.1641-5.9736-8.0469,0-14.915,3.2725-20.6035,9.814-5.6895,6.5435-8.5342,14.4883-8.5342,23.834s2.8447,17.2925,8.5342,23.8335c5.6885,6.5435,12.5566,9.814,20.6035,9.814,7.0703,0,13.124-1.9907,18.1641-5.9736l1.0977,1.4629Z"/><path class="cls-1" d="m1060.376,96.7979h-1.8291v-42.5474c0-7.0708-2.0938-12.9014-6.2783-17.4941-4.1865-4.5908-9.8955-6.8882-17.1289-6.8882-2.8457,0-5.5273.4478-8.0459,1.3413-2.5205.895-4.998,1.7886-7.4365,2.6821-1.627.5693-2.9678.853-4.0234.853-2.0322,0-3.7793-.6094-5.2422-1.8286v63.8818h-1.8281V0h1.8281v29.1367c0,1.1392.5488,2.0537,1.6465,2.7432,1.0967.6914,2.2949,1.0361,3.5957,1.0361,1.0557,0,3.5361-.7715,7.4365-2.3164,4.3076-1.7065,8.3301-2.5601,12.0693-2.5601,7.8027,0,14.0205,2.52,18.6523,7.5586,4.3896,4.8765,6.584,11.0938,6.584,18.6523v42.5474Z"/><path class="cls-1" d="m1133.5215,95.8228l-1.0977,1.3408-1.8281-1.4629c-2.5205-2.0308-5.2021-3.0479-8.0459-3.0479-.9756,0-4.126,1.0781-9.4482,3.2305-5.3242,2.1528-10.0996,3.231-14.3252,3.231-7.1523,0-12.9033-1.9258-17.25-5.772-4.3486-3.8477-6.5225-8.73-6.5225-14.6465,0-6.644,2.3564-11.6274,7.0703-14.9492,3.9814-2.7544,9.1436-4.1318,15.4834-4.1318h6.0957c11.459,0,17.1895-3.5356,17.1895-10.6064v-.1216c0-12.5972-6.2178-18.8965-18.6523-18.8965-6.9912,0-13.8184,2.1143-20.4814,6.3394l-.9756-1.4629c7.0713-4.4688,14.2217-6.7051,21.457-6.7051,6.583,0,11.6426,1.8286,15.1777,5.4858s5.3027,8.7378,5.3027,15.2393v27.5518c0,5.0405.6504,8.7588,1.9512,11.1553,1.2988,2.3979,4.0225,4.979,8.168,7.7412l.7314.4878Zm-7.8027-4.3892c-3.251-3.4932-4.876-8.4917-4.876-14.9951v-20.8467c-2.6826,3.7393-8.4121,5.6079-17.1895,5.6079h-6.0957c-6.0156,0-10.8105,1.2646-14.3857,3.7925-4.2266,3.0176-6.3398,7.5435-6.3398,13.5781,0,5.3828,1.9697,9.8481,5.9131,13.395,3.9414,3.5469,9.2842,5.3203,16.0312,5.3203,4.1455,0,8.7969-1.0762,13.959-3.231,5.1602-2.1523,8.4307-3.2305,9.8145-3.2305.8926,0,1.9502.2036,3.1689.6094Z"/><path class="cls-1" d="m1203.7422,96.7979h-1.8281v-42.5474c0-7.9639-2.3984-14.0996-7.1934-18.4087-4.3086-3.981-9.9561-5.9736-16.9453-5.9736-5.1201,0-10.2002,1.0781-15.2393,3.231-5.04,2.1543-8.6973,3.2305-10.9717,3.2305h-2.4385c3.0059,3.3184,4.5107,8.1758,4.5107,14.5703v45.8979h-1.8281v-46.0825c0-4.9565-.8135-8.7358-2.4385-11.3379-1.2197-1.7866-4.0234-4.4688-8.4121-8.0464l1.2188-1.3408c3.332,3.0078,6.4619,4.5107,9.3877,4.5107,1.9502,0,5.4648-1.0762,10.5449-3.2305,5.0791-2.1528,10.3018-3.231,15.666-3.231,7.4766,0,13.5322,2.1143,18.165,6.3394,5.2002,4.7148,7.8018,11.3379,7.8018,19.8716v42.5474Z"/><path class="cls-1" d="m1286.6416,30.9673c-4.3887,3.5015-7.1934,6.2271-8.4121,8.1797-1.627,2.686-2.4385,6.5088-2.4385,11.4731v55.542c0,5.6958-2.4795,10.0903-7.4365,13.1836-4.4707,2.686-10.1602,4.0288-17.0674,4.0288-9.3477,0-17.9209-2.1943-25.7236-6.583l.8535-1.585.8535.4878c6.8271,3.9009,14.8311,5.8516,24.0166,5.8516,6.6631,0,12.0273-1.2607,16.0918-3.7793,4.3896-2.6821,6.584-6.543,6.584-11.5815,0-2.7642-.8135-5.0405-2.4385-6.8271-1.627-1.7886-3.9834-2.6821-7.0713-2.6821-.6514,0-2.6016.4058-5.8516,1.2192-3.5771.8936-6.7051,1.3413-9.3867,1.3413-8.6162,0-15.9307-3.4746-21.9443-10.4238-6.0156-6.9487-9.0215-15.3398-9.0215-25.1748,0-10.4844,3.25-19.0981,9.7529-25.8452,6.2578-6.5015,14.0996-9.7529,23.5293-9.7529,4.876,0,9.6309.8955,14.2637,2.6821,1.7861.7314,3.5352,1.4629,5.2422,2.1943,2.0303.7314,3.9004,1.0972,5.6074,1.0972,2.3564,0,4.6729-.96,6.9492-2.8818.4053-.3335,1.0547-.8765,1.9502-1.6289l1.0977,1.4648Zm-7.8027,4.8745h-2.1943c-1.8701,0-3.7998-.3848-5.791-1.1582-1.9922-.7715-3.9219-1.5234-5.79-2.2554-4.4707-1.7065-8.9814-2.5601-13.5322-2.5601-8.8604,0-16.2568,3.0479-22.1885,9.1436-6.1777,6.3394-9.2656,14.5493-9.2656,24.626,0,9.3472,2.8447,17.3115,8.5342,23.895,5.6885,6.583,12.5566,9.8745,20.6035,9.8745,2.0303,0,6.0137-.6895,11.9473-2.0723,1.3809-.3237,2.4775-.4878,3.291-.4878,4.2256,0,7.3955,1.5449,9.5098,4.6328v-48.5781c0-6.5586,1.625-11.5776,4.876-15.0601Z"/><path class="cls-1" d="m1300.6602,11.7036h-1.8281V0h1.8281v11.7036Zm0,85.0942h-1.8281V30.9653h1.8281v65.8325Z"/><path class="cls-1" d="m1375.7568,96.7979h-1.8281v-42.5474c0-7.9639-2.3984-14.0996-7.1934-18.4087-4.3086-3.981-9.9561-5.9736-16.9453-5.9736-5.1201,0-10.2002,1.0781-15.2393,3.231-5.04,2.1543-8.6973,3.2305-10.9717,3.2305h-2.4385c3.0059,3.3184,4.5107,8.1758,4.5107,14.5703v45.8979h-1.8281v-46.0825c0-4.9565-.8135-8.7358-2.4385-11.3379-1.2197-1.7866-4.0234-4.4688-8.4121-8.0464l1.2188-1.3408c3.332,3.0078,6.4619,4.5107,9.3877,4.5107,1.9502,0,5.4648-1.0762,10.5449-3.2305,5.0791-2.1528,10.3018-3.231,15.666-3.231,7.4766,0,13.5322,2.1143,18.165,6.3394,5.2002,4.7148,7.8018,11.3379,7.8018,19.8716v42.5474Z"/><path class="cls-1" d="m1458.6562,30.9673c-4.3887,3.5015-7.1934,6.2271-8.4121,8.1797-1.627,2.686-2.4385,6.5088-2.4385,11.4731v55.542c0,5.6958-2.4795,10.0903-7.4365,13.1836-4.4707,2.686-10.1602,4.0288-17.0674,4.0288-9.3477,0-17.9209-2.1943-25.7236-6.583l.8535-1.585.8535.4878c6.8271,3.9009,14.8311,5.8516,24.0166,5.8516,6.6631,0,12.0273-1.2607,16.0918-3.7793,4.3896-2.6821,6.584-6.543,6.584-11.5815,0-2.7642-.8135-5.0405-2.4385-6.8271-1.627-1.7886-3.9834-2.6821-7.0713-2.6821-.6514,0-2.6016.4058-5.8516,1.2192-3.5771.8936-6.7051,1.3413-9.3867,1.3413-8.6162,0-15.9307-3.4746-21.9443-10.4238-6.0156-6.9487-9.0215-15.3398-9.0215-25.1748,0-10.4844,3.25-19.0981,9.7529-25.8452,6.2578-6.5015,14.0996-9.7529,23.5293-9.7529,4.876,0,9.6309.8955,14.2637,2.6821,1.7861.7314,3.5352,1.4629,5.2422,2.1943,2.0303.7314,3.9004,1.0972,5.6074,1.0972,2.3564,0,4.6729-.96,6.9492-2.8818.4053-.3335,1.0547-.8765,1.9502-1.6289l1.0977,1.4648Zm-7.8027,4.8745h-2.1943c-1.8701,0-3.7998-.3848-5.791-1.1582-1.9922-.7715-3.9219-1.5234-5.79-2.2554-4.4707-1.7065-8.9814-2.5601-13.5322-2.5601-8.8604,0-16.2568,3.0479-22.1885,9.1436-6.1777,6.3394-9.2656,14.5493-9.2656,24.626,0,9.3472,2.8447,17.3115,8.5342,23.895,5.6885,6.583,12.5566,9.8745,20.6035,9.8745,2.0303,0,6.0137-.6895,11.9473-2.0723,1.3809-.3237,2.4775-.4878,3.291-.4878,4.2256,0,7.3955,1.5449,9.5098,4.6328v-48.5781c0-6.5586,1.625-11.5776,4.876-15.0601Z"/><path class="cls-1" d="m1509.2471,96.7979h-1.8281V0h1.8281v96.7979Z"/><path class="cls-1" d="m1528.1426,11.7036h-1.8281V0h1.8281v11.7036Zm0,85.0942h-1.8281V30.9653h1.8281v65.8325Z"/><path class="cls-1" d="m1596.4131,30.5977l-23.6504,67.6631-6.0957-2.8037c-3.9834-1.7871-6.583-4.4692-7.8027-8.0464l-19.749-56.811,1.7061-.6094,19.75,56.811c1.1377,3.1694,3.4141,5.5278,6.8271,7.0708l4.3887,1.9507,22.9199-65.8325,1.7061.6074Z"/><path class="cls-1" d="m1665.293,57.1768c0,4.8765-2.8047,7.3145-8.4121,7.3145h-38.0371c-2.7637,0-5.1006.9561-7.0098,2.8647-1.9102,1.9106-2.8643,4.248-2.8643,7.0103,0,1.1392.0791,1.9106.2432,2.3164,2.1943,5.9336,5.3643,10.728,9.5098,14.3853,4.7119,4.145,9.9961,6.2178,15.8477,6.2178,7.9648,0,14.5879-2.9263,19.8721-8.7778l1.3408,1.2192c-5.5273,6.2593-12.5986,9.3872-21.2129,9.3872-8.6973,0-15.9297-3.8193-21.7002-11.46-5.2842-7.0708-7.9238-15.1167-7.9238-24.1382,0-9.6714,2.9658-17.9819,8.8994-24.9312,5.9316-6.9487,13.166-10.4233,21.7002-10.4233,7.4766,0,14.3037,2.9868,20.4814,8.9604,6.1758,5.9736,9.2656,12.6597,9.2656,20.0547Zm-1.8291.1216c0-6.9888-2.9072-13.2881-8.7168-18.896-5.8115-5.6084-12.2119-8.4121-19.2012-8.4121-7.9658,0-14.751,3.2725-20.3594,9.814-5.6074,6.543-8.4121,14.4463-8.4121,23.7119,0,2.6821.2842,5.2021.8535,7.5586.6494-2.4385,2.0312-4.4502,4.1455-6.0347,2.1123-1.585,4.4688-2.3774,7.0703-2.3774h38.0371c4.3887,0,6.583-1.7866,6.583-5.3643Z"/><path class="cls-1" d="m1723.8086,79.2427c0,6.2593-2.4385,11.2158-7.3145,14.873-4.4707,3.25-9.875,4.8765-16.2139,4.8765-8.9424,0-16.54-3.3716-22.7979-10.1187l1.3408-1.2192.6094.6099c5.9316,5.9336,12.8809,8.8994,20.8477,8.8994,6.0137,0,11.0518-1.543,15.1162-4.6328,4.3896-3.2495,6.584-7.6802,6.584-13.2881,0-10.8086-6.9092-16.5381-20.7256-17.1895-5.6074-.2441-10.2002-1.5029-13.7754-3.7793-4.4707-2.8442-6.7061-6.8672-6.7061-12.0693,0-6.0137,2.2354-10.6465,6.7061-13.8979,3.9805-2.8442,8.8994-4.2671,14.751-4.2671,8.5342,0,15.1572,2.7241,19.8711,8.168l-1.3408,1.2192c-4.3887-5.0381-10.5664-7.5586-18.5303-7.5586-5.5283,0-10.0791,1.3013-13.6543,3.9014-3.9834,3.0078-5.9736,7.1528-5.9736,12.4351,0,4.6323,2.0723,8.21,6.2178,10.728,3.249,1.9507,7.3945,3.0479,12.4346,3.2915,15.0352.7314,22.5537,7.0713,22.5537,19.0186Z"/></svg>