<?xml version="1.0" encoding="UTF-8"?><svg id="Layer_1" xmlns="http://www.w3.org/2000/svg" viewBox="0 0 1601.2881 122.521"><defs><style>.cls-1{fill:#13181b;}</style></defs><path class="cls-1" d="m50.3496,96.7979h-10.2407c-7.9663,0-14.062-1.3809-18.2866-4.145-6.1777-4.063-9.2656-11.2959-9.2656-21.7002v-19.8716H0v-20.1157h2.438c4.145,0,6.8672-.6284,8.1685-1.8896,1.2988-1.2588,1.9502-3.7583,1.9502-7.4976V0h21.9443v30.9653h15.8486v20.1157h-15.8486v20.481c0,2.1943.3848,3.5967,1.1582,4.2061.7715.6094,2.2554.9146,4.4497.9146h10.2407v20.1152Z"/><path class="cls-1" d="m129.3467,96.7979h-21.9443v-39.4995c0-2.1943-.853-4.103-2.5601-5.73-2.1143-1.9502-5.1201-2.9258-9.0215-2.9258-1.9507,0-4.0649.2041-6.3394.6099-1.7065.4072-3.3735.7734-4.9985,1.0972v46.4482h-21.9438V0h21.9438v29.7466c6.4194-1.1372,10.4844-1.707,12.1914-1.707,9.5093,0,17.3306,2.7852,23.4678,8.3511,6.1357,5.5679,9.2046,12.7397,9.2046,21.5176v38.8896Z"/><path class="cls-1" d="m199.4453,35.2324l-8.5913,19.0181c-7.0176-3.7373-12.3018-5.6079-15.8486-5.6079-2.4209,0-4.9619.4478-7.623,1.3413v46.814h-21.9443v-41.9375c0-1.9507-1.0171-3.5356-3.0479-4.7549l-5.7295-3.5352,11.8252-18.5308,3.7793,2.3164c1.4629.8955,2.8843,1.3408,4.2671,1.3408.9751,0,3.4326-.6704,7.3755-2.0112,3.9414-1.3413,7.4556-2.0117,10.5454-2.0117,7.0708,0,15.4009,2.52,24.9922,7.5586Z"/><path class="cls-1" d="m280.0273,63.6377c0,10.0786-3.7603,18.5308-11.2769,25.3579-7.5186,6.8271-16.3975,10.2407-26.6377,10.2407-10.1606,0-18.9385-3.3721-26.333-10.1191-7.6406-6.9067-11.46-15.4009-11.46-25.4795s3.8193-18.5703,11.46-25.4795c7.3145-6.7451,16.0923-10.1187,26.333-10.1187s19.1191,3.4136,26.6377,10.2407c7.5166,6.8271,11.2769,15.2808,11.2769,25.3574Zm-21.9443,0c0-3.6875-1.4229-7.0459-4.2671-10.0786-3.1694-3.2764-7.0708-4.9165-11.7031-4.9165-4.5527,0-8.4121,1.6401-11.582,4.9165-2.8457,3.0327-4.2666,6.3911-4.2666,10.0786,0,3.606,1.4209,6.9243,4.2666,9.9551,3.1699,3.3604,7.0293,5.04,11.582,5.04s8.4517-1.6797,11.7031-5.04c2.8442-3.0308,4.2671-6.3491,4.2671-9.9551Z"/><path class="cls-1" d="m365.1216,79.73l-11.8252,18.5308-3.7793-2.438c-1.3833-.8936-2.9263-1.3413-4.6328-1.3413-2.0327,0-5.4458.6704-10.2407,2.0117-4.7964,1.3408-8.8994,2.0112-12.313,2.0112-9.2651,0-17.0068-2.6553-23.2241-7.9697-6.2178-5.3145-9.3262-12.271-9.3262-20.8716V30.9653h21.9438v38.667c0,5.269,3.4976,7.9033,10.4941,7.9033,2.0098,0,6.0708-.7295,12.1816-2.1885V30.9653h21.9438v40.4751c0,1.9502,1.0156,3.5352,3.0479,4.7544l5.73,3.5352Z"/><path class="cls-1" d="m449.8496,47.0083l-5.4863,2.7983c-1.8706.9731-2.8037,2.4727-2.8037,4.499v42.5591c0,7.4575-3.1909,13.5986-9.5703,18.4219-6.3813,4.8232-14.3247,7.2344-23.8335,7.2344-13.98,0-26.6987-3.0073-38.1587-9.021l8.4121-16.8242c10.5645,4.4688,20.439,6.7051,29.6245,6.7051,4.063,0,7.1509-.7314,9.2651-2.1943,1.7871-1.2188,2.6821-2.7236,2.6821-4.5107,0-2.438-1.4229-3.6572-4.2671-3.6572-.6514,0-1.9502.1221-3.9009.3657s-3.6992.3657-5.2422.3657c-9.7529,0-17.8413-2.7622-24.2607-8.29-6.9907-5.8516-10.4844-13.6938-10.4844-23.5288,0-10.6465,3.6978-19.0981,11.0942-25.3579,6.6631-5.6079,15.1172-8.4116,25.3574-8.4116,4.2251,0,8.4731.5693,12.7397,1.7065,4.2671,1.1392,7.2539,1.707,8.9604,1.707,1.8691,0,4.2671-.8345,7.1929-2.5029l1.585-.9106,11.0942,18.8467Zm-29.7466,2.3657c-4.0649-1.2188-7.7622-1.8286-11.0942-1.8286-5.5278,0-9.6309,1.7485-12.313,5.2422-1.9507,2.52-2.9258,5.5278-2.9258,9.0215,0,3.252.9336,5.9736,2.8037,8.168,2.4385,2.9263,6.2578,4.3892,11.46,4.3892,1.3809,0,3.3525-.2021,5.9126-.6099,2.5601-.4058,4.4497-.6094,5.6689-.6094v-19.5059c0-1.2192.1621-2.6401.4878-4.2671Z"/><path class="cls-1" d="m523.9712,96.7979h-21.9443v-39.4995c0-2.1943-.853-4.103-2.5601-5.73-2.1143-1.9502-5.1201-2.9258-9.0215-2.9258-1.9507,0-4.0649.2041-6.3394.6099-1.7065.4072-3.3735.7734-4.9985,1.0972v46.4482h-21.9438V0h21.9438v29.7466c6.4194-1.1372,10.4844-1.707,12.1914-1.707,9.5093,0,17.3306,2.7852,23.4678,8.3511,6.1357,5.5679,9.2046,12.7397,9.2046,21.5176v38.8896Z"/><path class="cls-1" d="m582.4878,96.7979h-21.9438V0h21.9438v96.7979Z"/><path class="cls-1" d="m616.6226,20.603h-21.9438V0h21.9438v20.603Zm0,76.1948h-21.9438V30.9653h21.9438v65.8325Z"/><path class="cls-1" d="m701.2295,36.0859l-26.6987,63.6377-10.4844-3.2915c-10.7285-3.4136-17.4336-8.248-20.1152-14.5073l-19.3843-45.8389,20.2373-8.4121,12.4351,28.771c1.2993,3.0078,2.9658,8.6558,4.9985,16.9458l1.0972.3657c1.543-6.9888,3.2495-12.7188,5.1201-17.1895l12.4351-28.8931,20.3594,8.4121Z"/><path class="cls-1" d="m777.1802,58.6396c0,4.7144-1.749,8.29-5.2422,10.728-3.0078,2.0327-6.8691,3.0479-11.582,3.0479h-23.1631c-1.9507,0-4.8765-.4878-8.7778-1.4629v.8535c1.543,2.8457,4.7129,5.04,9.5093,6.583,3.9014,1.3013,7.8823,1.9507,11.9473,1.9507,6.2578,0,11.9873-.7715,17.1899-2.3164l6.3394,16.458c-7.3149,2.8442-15.0771,4.2671-23.2852,4.2671-12.0293,0-22.0264-2.8843-29.9902-8.6558-8.9419-6.4194-13.4106-15.2788-13.4106-26.5767,0-10.3208,3.4746-18.8354,10.4233-25.5405,6.9492-6.7051,15.4619-10.0581,25.5405-10.0581,8.8579,0,16.7021,2.8042,23.5293,8.4121,7.3145,6.0156,10.9722,13.4521,10.9722,22.3101Zm-20.6035-1.707c-.4072-2.9258-1.9712-5.3833-4.6934-7.3755-2.7241-1.9907-5.751-2.9868-9.0825-2.9868-3.4136,0-6.4614.9751-9.1436,2.9258-2.6816,1.9507-4.3887,4.4307-5.1201,7.4365,3.1699-.6494,5.688-.9751,7.5586-.9751h12.9229c1.7065,0,4.2246.3257,7.5581.9751Z"/><path class="cls-1" d="m879.3398,58.6396c0,4.7144-1.748,8.29-5.2422,10.728-3.0078,2.0327-6.8691,3.0479-11.5811,3.0479h-23.1631c-1.9512,0-4.877-.4878-8.7783-1.4629v.8535c1.543,2.8457,4.7129,5.04,9.5098,6.583,3.9004,1.3013,7.8818,1.9507,11.9473,1.9507,6.2568,0,11.9873-.7715,17.1895-2.3164l6.3389,16.458c-7.3145,2.8442-15.0771,4.2671-23.2852,4.2671-12.0293,0-22.0254-2.8843-29.9902-8.6558-8.9414-6.4194-13.4102-15.2788-13.4102-26.5767,0-10.3208,3.4746-18.8354,10.4238-25.5405,6.9482-6.7051,15.4619-10.0581,25.54-10.0581,8.8574,0,16.7021,2.8042,23.5293,8.4121,7.3145,6.0156,10.9717,13.4521,10.9717,22.3101Zm-20.6025-1.707c-.4082-2.9258-1.9717-5.3833-4.6943-7.3755-2.7236-1.9907-5.75-2.9868-9.082-2.9868-3.4131,0-6.4609.9751-9.1436,2.9258-2.6816,1.9507-4.3887,4.4307-5.1201,7.4365,3.1699-.6494,5.6885-.9751,7.5586-.9751h12.9229c1.707,0,4.2246.3257,7.5586.9751Z"/><path class="cls-1" d="m958.3369,42.5469l-14.0205,14.2642c-1.626,1.6265-4.3486,3.9829-8.168,7.0708,2.2744,1.8706,5.0781,4.3086,8.4121,7.3145l13.2881,13.4102-15.6045,15.4829-13.5322-13.6538c-1.5449-1.625-3.8213-4.5508-6.8271-8.7778-1.4629,2.0327-3.7393,4.9585-6.8271,8.7778l-13.5322,13.6538-15.6045-15.4829,13.2881-13.4102c.9756-.9751,3.7793-3.4136,8.4121-7.3145-1.8701-1.4629-4.5928-3.8193-8.168-7.0708l-14.0195-14.2642,15.6045-15.3608,13.8975,14.1421c1.3818,1.4629,3.6982,4.3887,6.9492,8.7773,1.543-2.1123,3.8594-5.0381,6.9492-8.7773l13.8975-14.1421,15.6055,15.3608Z"/><path class="cls-1" d="m1040.5039,63.394c0,10.4043-3.5771,18.8564-10.7285,25.3574-7.1523,6.5034-16.1338,9.7529-26.9424,9.7529-3.4951,0-6.8271-.2856-9.9971-.853v24.2603h-21.9434V54.8604c0-1.9507-1.0176-3.5356-3.0479-4.7549l-5.7305-3.5352,11.8252-18.5308,2.1953,1.3413c2.9258,1.7886,5.3213,2.6816,7.1924,2.6816,2.1123,0,5.2422-.6094,9.3867-1.8286,4.1455-1.2188,8.0469-1.8286,11.7041-1.8286,9.833,0,18.2051,3.1699,25.1133,9.5093,7.3154,6.7471,10.9727,15.2388,10.9727,25.4795Zm-21.9443,0c0-3.8193-1.3291-7.2729-3.9854-10.3623-2.8984-3.25-6.4414-4.8765-10.627-4.8765-2.5771,0-6.2803.7314-11.1113,2.1943v26.9424c4.2256.7314,7.5586,1.0972,9.9971,1.0972,5.0381,0,9.0215-1.585,11.9473-4.7544,2.5186-2.7622,3.7793-6.1758,3.7793-10.2407Z"/><path class="cls-1" d="m1118.1611,58.6396c0,4.7144-1.748,8.29-5.2422,10.728-3.0078,2.0327-6.8691,3.0479-11.5811,3.0479h-23.1631c-1.9512,0-4.877-.4878-8.7783-1.4629v.8535c1.543,2.8457,4.7129,5.04,9.5098,6.583,3.9004,1.3013,7.8818,1.9507,11.9473,1.9507,6.2568,0,11.9873-.7715,17.1895-2.3164l6.3389,16.458c-7.3145,2.8442-15.0771,4.2671-23.2852,4.2671-12.0293,0-22.0254-2.8843-29.9902-8.6558-8.9414-6.4194-13.4102-15.2788-13.4102-26.5767,0-10.3208,3.4746-18.8354,10.4238-25.5405,6.9482-6.7051,15.4619-10.0581,25.54-10.0581,8.8574,0,16.7021,2.8042,23.5293,8.4121,7.3145,6.0156,10.9717,13.4521,10.9717,22.3101Zm-20.6025-1.707c-.4082-2.9258-1.9717-5.3833-4.6943-7.3755-2.7236-1.9907-5.75-2.9868-9.082-2.9868-3.4131,0-6.4609.9751-9.1436,2.9258-2.6816,1.9507-4.3887,4.4307-5.1201,7.4365,3.1699-.6494,5.6885-.9751,7.5586-.9751h12.9229c1.707,0,4.2246.3257,7.5586.9751Z"/><path class="cls-1" d="m1185.8203,35.2324l-8.5908,19.0181c-7.0176-3.7373-12.3018-5.6079-15.8486-5.6079-2.4209,0-4.9629.4478-7.624,1.3413v46.814h-21.9434v-41.9375c0-1.9507-1.0176-3.5356-3.0479-4.7549l-5.7305-3.5352,11.8262-18.5308,3.7793,2.3164c1.4629.8955,2.8838,1.3408,4.2666,1.3408.9756,0,3.4326-.6704,7.376-2.0112,3.9404-1.3413,7.4551-2.0117,10.5449-2.0117,7.0713,0,15.4014,2.52,24.9922,7.5586Z"/><path class="cls-1" d="m1215.0781,20.603h-21.9443V0h21.9443v20.603Zm0,76.1948h-21.9443V30.9653h21.9443v65.8325Z"/><path class="cls-1" d="m1295.2949,58.6396c0,4.7144-1.748,8.29-5.2422,10.728-3.0078,2.0327-6.8691,3.0479-11.5811,3.0479h-23.1631c-1.9512,0-4.877-.4878-8.7783-1.4629v.8535c1.543,2.8457,4.7129,5.04,9.5098,6.583,3.9004,1.3013,7.8818,1.9507,11.9473,1.9507,6.2568,0,11.9873-.7715,17.1895-2.3164l6.3389,16.458c-7.3145,2.8442-15.0771,4.2671-23.2852,4.2671-12.0293,0-22.0254-2.8843-29.9902-8.6558-8.9414-6.4194-13.4102-15.2788-13.4102-26.5767,0-10.3208,3.4746-18.8354,10.4238-25.5405,6.9482-6.7051,15.4619-10.0581,25.54-10.0581,8.8574,0,16.7021,2.8042,23.5293,8.4121,7.3145,6.0156,10.9717,13.4521,10.9717,22.3101Zm-20.6025-1.707c-.4082-2.9258-1.9717-5.3833-4.6943-7.3755-2.7236-1.9907-5.75-2.9868-9.082-2.9868-3.4131,0-6.4609.9751-9.1436,2.9258-2.6816,1.9507-4.3887,4.4307-5.1201,7.4365,3.1699-.6494,5.6885-.9751,7.5586-.9751h12.9229c1.707,0,4.2246.3257,7.5586.9751Z"/><path class="cls-1" d="m1375.6338,96.7979h-21.9443v-40.231c0-5.2822-3.499-7.9243-10.4941-7.9243-1.9297,0-5.9902.7314-12.1816,2.1943v45.9609h-21.9434v-41.9375c0-1.9507-1.0176-3.5356-3.0479-4.7549l-5.7305-3.5352,11.8252-18.5308,3.7793,2.4385c1.3818.895,2.9268,1.3408,4.6328,1.3408,2.0312,0,5.4443-.6895,10.2412-2.0723,4.7939-1.3813,8.8994-2.0728,12.3125-2.0728,9.2656,0,17.0068,2.6631,23.2246,7.9854,6.2178,5.3242,9.3262,12.2939,9.3262,20.9077v40.231Z"/><path class="cls-1" d="m1450.4863,36.3296l-9.2646,18.2866c-7.0713-3.9009-13.0869-5.8516-18.043-5.8516-5.041,0-8.9609,1.4648-11.7646,4.3945s-4.2061,6.3623-4.2061,10.2939,1.3408,7.2251,4.0234,9.873c2.9258,3.0513,6.9062,4.5752,11.9473,4.5752,4.7939,0,10.8076-1.9902,18.043-5.9736l9.1426,18.0811c-9.7529,5.665-18.8154,8.4956-27.1855,8.4956-11.9473,0-21.417-3.6494-28.4062-10.9526-6.3389-6.5718-9.5088-14.603-9.5088-24.0967,0-9.5742,3.1699-17.647,9.5088-24.2188,6.9893-7.3833,16.459-11.0747,28.4062-11.0747,8.5332,0,17.6348,2.7241,27.3076,8.168Z"/><path class="cls-1" d="m1528.2646,58.6396c0,4.7144-1.748,8.29-5.2422,10.728-3.0078,2.0327-6.8691,3.0479-11.5811,3.0479h-23.1631c-1.9512,0-4.877-.4878-8.7783-1.4629v.8535c1.543,2.8457,4.7129,5.04,9.5098,6.583,3.9004,1.3013,7.8818,1.9507,11.9473,1.9507,6.2568,0,11.9873-.7715,17.1895-2.3164l6.3389,16.458c-7.3145,2.8442-15.0771,4.2671-23.2852,4.2671-12.0293,0-22.0254-2.8843-29.9902-8.6558-8.9414-6.4194-13.4102-15.2788-13.4102-26.5767,0-10.3208,3.4746-18.8354,10.4238-25.5405,6.9482-6.7051,15.4619-10.0581,25.54-10.0581,8.8574,0,16.7021,2.8042,23.5293,8.4121,7.3145,6.0156,10.9717,13.4521,10.9717,22.3101Zm-20.6025-1.707c-.4082-2.9258-1.9717-5.3833-4.6943-7.3755-2.7236-1.9907-5.75-2.9868-9.082-2.9868-3.4131,0-6.4609.9751-9.1436,2.9258-2.6816,1.9507-4.3887,4.4307-5.1201,7.4365,3.1699-.6494,5.6885-.9751,7.5586-.9751h12.9229c1.707,0,4.2246.3257,7.5586.9751Z"/><path class="cls-1" d="m1601.2881,74.7319c0,7.8843-3.4951,14.0615-10.4844,18.5303-6.0957,3.9014-13.3301,5.8521-21.7002,5.8521-7.3965,0-13.8369-.8535-19.3232-2.5601-5.4863-1.707-11.1963-4.5508-17.1289-8.5342l9.7285-15.8481c5.1875,2.8076,9.4424,4.7485,12.7666,5.8213,4.1338,1.3218,8.7549,1.981,13.8613,1.981,6.8906,0,10.3359-1.4058,10.3359-4.2173,0-1.9834-1.9844-2.9756-5.9541-2.9756h-3.6484c-7.5352,0-14.1377-1.625-19.8105-4.8765-6.9678-3.981-10.4521-9.5493-10.4521-16.7021,0-7.8022,3.21-13.7339,9.6309-17.7988,5.3643-3.4937,12.0693-5.2422,20.1162-5.2422,9.5088,0,19.9111,2.1143,31.209,6.3394l-6.583,17.4336c-8.4541-3.0879-16.7441-4.6328-24.8701-4.6328-3.8213,0-5.7295,1.1182-5.7295,3.3525,0,2.2363,2.1123,3.3525,6.3389,3.3525,21.1309,0,31.6973,6.9092,31.6973,20.7251Z"/></svg>