<?xml version="1.0" encoding="UTF-8"?><svg id="Layer_1" xmlns="http://www.w3.org/2000/svg" viewBox="0 0 1463.0479 121.9116"><defs><style>.cls-1{fill:#13181b;}</style></defs><path class="cls-1" d="m108.1357,32.8989l-16.5801,66.8247-9.8745-2.9258c-6.9912-2.0308-11.9478-4.2671-14.8735-6.7051-4.2271-3.5757-6.9487-9.0615-8.168-16.458l-3.7793-23.0415c-.082-.4878-.3257-.7314-.7314-.7314-.4878,0-.7734.2437-.8535.7314l-9.3872,49.1304-10.6064-3.1694c-6.2593-1.8687-10.9717-4.1851-14.1416-6.9492-4.0649-3.5752-6.9907-8.8994-8.7773-15.9702L0,33.0381l20.4814-5.2422,7.1924,27.9175c.7314,2.8462,1.3813,7.8027,1.9507,14.8735l1.4629.4878,5.73-30.478c.7314-4.0635,2.7012-7.376,5.9126-9.936,3.21-2.5601,7.0103-3.8403,11.3989-3.8403,4.3071,0,8.0859,1.2803,11.3379,3.8403,3.2495,2.5601,5.2422,5.8726,5.9736,9.936l5.4858,29.9902,1.4629.4878c.3242-6.1416,1.0156-11.2334,2.0728-15.2754l7.0708-28.0034,20.603,5.103Z"/><path class="cls-1" d="m184.0859,58.6396c0,4.7144-1.749,8.29-5.2422,10.728-3.0078,2.0327-6.8691,3.0479-11.582,3.0479h-23.1631c-1.9507,0-4.8765-.4878-8.7778-1.4629v.8535c1.543,2.8457,4.7129,5.04,9.5093,6.583,3.9014,1.3013,7.8823,1.9507,11.9473,1.9507,6.2578,0,11.9873-.7715,17.1899-2.3164l6.3394,16.458c-7.3149,2.8442-15.0771,4.2671-23.2852,4.2671-12.0293,0-22.0264-2.8843-29.9902-8.6558-8.9419-6.4194-13.4106-15.2788-13.4106-26.5767,0-10.3208,3.4746-18.8354,10.4233-25.5405,6.9492-6.7051,15.4619-10.0581,25.5405-10.0581,8.8579,0,16.7021,2.8042,23.5293,8.4121,7.3145,6.0156,10.9722,13.4521,10.9722,22.3101Zm-20.6035-1.707c-.4072-2.9258-1.9712-5.3833-4.6934-7.3755-2.7241-1.9907-5.751-2.9868-9.0825-2.9868-3.4136,0-6.4614.9751-9.1436,2.9258-2.6816,1.9507-4.3887,4.4307-5.1201,7.4365,3.1699-.6494,5.688-.9751,7.5586-.9751h12.9229c1.7065,0,4.2246.3257,7.5581.9751Z"/><path class="cls-1" d="m288.9277,80.1855l-11.7031,18.3188-3.6577-2.2725c-1.3828-.8418-3.1294-1.2627-5.2422-1.2627-2.1143,0-4.5923.3657-7.4365,1.0972-5.1201,1.2993-10.2822,1.9507-15.4829,1.9507-8.1279,0-14.6714-1.665-19.6274-4.9985-5.8521-3.981-8.7778-9.9966-8.7778-18.043,0-8.6958,3.981-14.5474,11.9473-17.5552,4.7944-1.7866,12.3931-2.6821,22.7974-2.6821,4.5508,0,6.8271-1.2593,6.8271-3.7793,0-2.8438-2.9678-4.2671-8.8994-4.2671-3.7393,0-8.168.5298-13.2886,1.585-4.3887.9756-7.3965,1.8286-9.0215,2.5601l-7.4365-15.9702c9.5093-4.4688,20.1953-6.7051,32.063-6.7051,7.3145,0,13.6938,2.0361,19.1401,6.1069,6.0137,4.3965,9.0215,10.1357,9.0215,17.2183v20.3955c0,1.9541,1.0151,3.541,3.0479,4.7622l5.7295,3.541Zm-29.8682-1.7964c-.4077-1.625-.6914-4.2251-.8535-7.8022-1.4629.4077-2.9678.6094-4.5107.6094h-7.0708c-5.2842,0-7.9243,1.3828-7.9243,4.145,0,3.4136,3.0479,5.1206,9.1436,5.1206,4.063,0,7.8022-.6899,11.2158-2.0728Z"/><path class="cls-1" d="m354.1509,35.2324l-8.5913,19.0181c-7.0176-3.7373-12.3018-5.6079-15.8486-5.6079-2.4209,0-4.9619.4478-7.623,1.3413v46.814h-21.9443v-41.9375c0-1.9507-1.0171-3.5356-3.0479-4.7549l-5.7295-3.5352,11.8252-18.5308,3.7793,2.3164c1.4629.8955,2.8843,1.3408,4.2671,1.3408.9751,0,3.4326-.6704,7.3755-2.0112,3.9414-1.3413,7.4556-2.0117,10.5454-2.0117,7.0708,0,15.4009,2.52,24.9922,7.5586Z"/><path class="cls-1" d="m429.4907,58.6396c0,4.7144-1.749,8.29-5.2422,10.728-3.0078,2.0327-6.8691,3.0479-11.582,3.0479h-23.1631c-1.9507,0-4.8765-.4878-8.7778-1.4629v.8535c1.543,2.8457,4.7129,5.04,9.5093,6.583,3.9014,1.3013,7.8823,1.9507,11.9473,1.9507,6.2578,0,11.9873-.7715,17.1899-2.3164l6.3394,16.458c-7.3149,2.8442-15.0771,4.2671-23.2852,4.2671-12.0293,0-22.0264-2.8843-29.9902-8.6558-8.9419-6.4194-13.4106-15.2788-13.4106-26.5767,0-10.3208,3.4746-18.8354,10.4233-25.5405,6.9492-6.7051,15.4619-10.0581,25.5405-10.0581,8.8579,0,16.7021,2.8042,23.5293,8.4121,7.3145,6.0156,10.9722,13.4521,10.9722,22.3101Zm-20.6035-1.707c-.4072-2.9258-1.9712-5.3833-4.6934-7.3755-2.7241-1.9907-5.751-2.9868-9.0825-2.9868-3.4136,0-6.4614.9751-9.1436,2.9258-2.6816,1.9507-4.3887,4.4307-5.1201,7.4365,3.1699-.6494,5.688-.9751,7.5586-.9751h12.9229c1.7065,0,4.2246.3257,7.5581.9751Z"/><path class="cls-1" d="m534.3325,80.1855l-11.7031,18.3188-3.6577-2.2725c-1.3828-.8418-3.1294-1.2627-5.2422-1.2627-2.1143,0-4.5923.3657-7.4365,1.0972-5.1201,1.2993-10.2822,1.9507-15.4829,1.9507-8.1279,0-14.6714-1.665-19.6274-4.9985-5.8521-3.981-8.7778-9.9966-8.7778-18.043,0-8.6958,3.981-14.5474,11.9473-17.5552,4.7944-1.7866,12.3931-2.6821,22.7974-2.6821,4.5508,0,6.8271-1.2593,6.8271-3.7793,0-2.8438-2.9678-4.2671-8.8994-4.2671-3.7393,0-8.168.5298-13.2886,1.585-4.3887.9756-7.3965,1.8286-9.0215,2.5601l-7.4365-15.9702c9.5093-4.4688,20.1953-6.7051,32.063-6.7051,7.3145,0,13.6938,2.0361,19.1401,6.1069,6.0137,4.3965,9.0215,10.1357,9.0215,17.2183v20.3955c0,1.9541,1.0151,3.541,3.0479,4.7622l5.7295,3.541Zm-29.8682-1.7964c-.4077-1.625-.6914-4.2251-.8535-7.8022-1.4629.4077-2.9678.6094-4.5107.6094h-7.0708c-5.2842,0-7.9243,1.3828-7.9243,4.145,0,3.4136,3.0479,5.1206,9.1436,5.1206,4.063,0,7.8022-.6899,11.2158-2.0728Z"/><path class="cls-1" d="m612.2344,96.7979h-21.9443v-40.231c0-5.2822-3.499-7.9243-10.4937-7.9243-1.9297,0-5.9912.7314-12.1816,2.1943v45.9609h-21.9443v-41.9375c0-1.9507-1.0171-3.5356-3.0479-4.7549l-5.73-3.5352,11.8257-18.5308,3.7793,2.4385c1.3809.895,2.9258,1.3408,4.6328,1.3408,2.0303,0,5.4438-.6895,10.2402-2.0723,4.7949-1.3813,8.8999-2.0728,12.313-2.0728,9.2656,0,17.0068,2.6631,23.2246,7.9854,6.2173,5.3242,9.3262,12.2939,9.3262,20.9077v40.231Z"/><path class="cls-1" d="m670.6284,20.603h-21.9438V0h21.9438v20.603Zm0,76.1948h-21.9438V30.9653h21.9438v65.8325Z"/><path class="cls-1" d="m753.4072,96.7979h-21.9448v-40.231c0-5.2822-3.499-7.9243-10.4937-7.9243-1.9297,0-5.9912.7314-12.1816,2.1943v45.9609h-21.9443v-41.9375c0-1.9507-1.0171-3.5356-3.0479-4.7549l-5.73-3.5352,11.8257-18.5308,3.7793,2.4385c1.3809.895,2.9258,1.3408,4.6328,1.3408,2.0303,0,5.4438-.6895,10.2402-2.0723,4.7949-1.3813,8.8999-2.0728,12.313-2.0728,9.2656,0,17.0063,2.6631,23.2251,7.9854,6.2168,5.3242,9.3262,12.2939,9.3262,20.9077v40.231Z"/><path class="cls-1" d="m841.4268,79.9971l-11.8262,18.5073-2.1943-1.3008c-2.9258-1.7334-5.3232-2.6001-7.1924-2.6001-2.1143,0-5.2422.6094-9.3877,1.8286-4.1445,1.2192-8.0459,1.8286-11.7031,1.8286-9.835,0-18.207-3.1694-25.1133-9.5093-7.3154-6.7451-10.9727-15.2388-10.9727-25.4795,0-10.4023,3.5752-18.8545,10.7285-25.3574,7.1504-6.5015,16.1318-9.7529,26.9424-9.7529,3.4932,0,6.8271.2437,9.9971.7314V0h21.9434v71.7163c0,1.9507,1.0156,3.5337,3.0479,4.749l5.7305,3.5317Zm-30.7217-3.6802v-26.9429c-4.2275-.7314-7.5586-1.0972-9.9971-1.0972-5.04,0-8.9814,1.585-11.8252,4.7549-2.6025,2.7637-3.9014,6.1772-3.9014,10.2402,0,3.8213,1.3887,7.3149,4.166,10.4844,2.7773,3.1699,6.2588,4.7549,10.4463,4.7549,2.5752,0,6.2803-.7314,11.1113-2.1943Z"/><path class="cls-1" d="m916.7666,58.6396c0,4.7144-1.748,8.29-5.2422,10.728-3.0078,2.0327-6.8691,3.0479-11.5811,3.0479h-23.1631c-1.9512,0-4.877-.4878-8.7783-1.4629v.8535c1.543,2.8457,4.7129,5.04,9.5098,6.583,3.9004,1.3013,7.8818,1.9507,11.9473,1.9507,6.2568,0,11.9873-.7715,17.1895-2.3164l6.3389,16.458c-7.3145,2.8442-15.0771,4.2671-23.2852,4.2671-12.0293,0-22.0254-2.8843-29.9902-8.6558-8.9414-6.4194-13.4102-15.2788-13.4102-26.5767,0-10.3208,3.4746-18.8354,10.4238-25.5405,6.9482-6.7051,15.4619-10.0581,25.54-10.0581,8.8574,0,16.7021,2.8042,23.5293,8.4121,7.3145,6.0156,10.9717,13.4521,10.9717,22.3101Zm-20.6025-1.707c-.4082-2.9258-1.9717-5.3833-4.6943-7.3755-2.7236-1.9907-5.75-2.9868-9.082-2.9868-3.4131,0-6.4609.9751-9.1436,2.9258-2.6816,1.9507-4.3887,4.4307-5.1201,7.4365,3.1699-.6494,5.6885-.9751,7.5586-.9751h12.9229c1.707,0,4.2246.3257,7.5586.9751Z"/><path class="cls-1" d="m1000.1533,63.394c0,10.4043-3.5771,18.8564-10.7285,25.3574-7.1523,6.5034-16.1338,9.7529-26.9424,9.7529-3.4951,0-6.8271-.2856-9.9971-.853v24.2603h-21.9434V54.8604c0-1.9507-1.0176-3.5356-3.0479-4.7549l-5.7305-3.5352,11.8252-18.5308,2.1953,1.3413c2.9258,1.7886,5.3213,2.6816,7.1924,2.6816,2.1123,0,5.2422-.6094,9.3867-1.8286,4.1455-1.2188,8.0469-1.8286,11.7041-1.8286,9.833,0,18.2051,3.1699,25.1133,9.5093,7.3154,6.7471,10.9727,15.2388,10.9727,25.4795Zm-21.9443,0c0-3.8193-1.3291-7.2729-3.9854-10.3623-2.8984-3.25-6.4414-4.8765-10.627-4.8765-2.5771,0-6.2803.7314-11.1113,2.1943v26.9424c4.2256.7314,7.5586,1.0972,9.9971,1.0972,5.0381,0,9.0215-1.585,11.9473-4.7544,2.5186-2.7622,3.7793-6.1758,3.7793-10.2407Z"/><path class="cls-1" d="m1077.8105,58.6396c0,4.7144-1.748,8.29-5.2422,10.728-3.0078,2.0327-6.8691,3.0479-11.5811,3.0479h-23.1631c-1.9512,0-4.877-.4878-8.7783-1.4629v.8535c1.543,2.8457,4.7129,5.04,9.5098,6.583,3.9004,1.3013,7.8818,1.9507,11.9473,1.9507,6.2568,0,11.9873-.7715,17.1895-2.3164l6.3389,16.458c-7.3145,2.8442-15.0771,4.2671-23.2852,4.2671-12.0293,0-22.0254-2.8843-29.9902-8.6558-8.9414-6.4194-13.4102-15.2788-13.4102-26.5767,0-10.3208,3.4746-18.8354,10.4238-25.5405,6.9482-6.7051,15.4619-10.0581,25.54-10.0581,8.8574,0,16.7021,2.8042,23.5293,8.4121,7.3145,6.0156,10.9717,13.4521,10.9717,22.3101Zm-20.6025-1.707c-.4082-2.9258-1.9717-5.3833-4.6943-7.3755-2.7236-1.9907-5.75-2.9868-9.082-2.9868-3.4131,0-6.4609.9751-9.1436,2.9258-2.6816,1.9507-4.3887,4.4307-5.1201,7.4365,3.1699-.6494,5.6885-.9751,7.5586-.9751h12.9229c1.707,0,4.2246.3257,7.5586.9751Z"/><path class="cls-1" d="m1158.1484,96.7979h-21.9443v-40.231c0-5.2822-3.499-7.9243-10.4941-7.9243-1.9297,0-5.9902.7314-12.1816,2.1943v45.9609h-21.9434v-41.9375c0-1.9507-1.0176-3.5356-3.0479-4.7549l-5.7305-3.5352,11.8252-18.5308,3.7793,2.4385c1.3818.895,2.9268,1.3408,4.6328,1.3408,2.0312,0,5.4443-.6895,10.2412-2.0723,4.7939-1.3813,8.8994-2.0728,12.3125-2.0728,9.2656,0,17.0068,2.6631,23.2246,7.9854,6.2178,5.3242,9.3262,12.2939,9.3262,20.9077v40.231Z"/><path class="cls-1" d="m1246.1689,79.9971l-11.8262,18.5073-2.1943-1.3008c-2.9258-1.7334-5.3232-2.6001-7.1924-2.6001-2.1143,0-5.2422.6094-9.3877,1.8286-4.1445,1.2192-8.0459,1.8286-11.7031,1.8286-9.835,0-18.207-3.1694-25.1133-9.5093-7.3154-6.7451-10.9727-15.2388-10.9727-25.4795,0-10.4023,3.5752-18.8545,10.7285-25.3574,7.1504-6.5015,16.1318-9.7529,26.9424-9.7529,3.4932,0,6.8271.2437,9.9971.7314V0h21.9434v71.7163c0,1.9507,1.0156,3.5337,3.0479,4.749l5.7305,3.5317Zm-30.7217-3.6802v-26.9429c-4.2275-.7314-7.5586-1.0972-9.9971-1.0972-5.04,0-8.9814,1.585-11.8252,4.7549-2.6025,2.7637-3.9014,6.1772-3.9014,10.2402,0,3.8213,1.3887,7.3149,4.166,10.4844,2.7773,3.1699,6.2588,4.7549,10.4463,4.7549,2.5752,0,6.2803-.7314,11.1113-2.1943Z"/><path class="cls-1" d="m1321.5098,58.6396c0,4.7144-1.748,8.29-5.2422,10.728-3.0078,2.0327-6.8691,3.0479-11.5811,3.0479h-23.1631c-1.9512,0-4.877-.4878-8.7783-1.4629v.8535c1.543,2.8457,4.7129,5.04,9.5098,6.583,3.9004,1.3013,7.8818,1.9507,11.9473,1.9507,6.2568,0,11.9873-.7715,17.1895-2.3164l6.3389,16.458c-7.3145,2.8442-15.0771,4.2671-23.2852,4.2671-12.0293,0-22.0254-2.8843-29.9902-8.6558-8.9414-6.4194-13.4102-15.2788-13.4102-26.5767,0-10.3208,3.4746-18.8354,10.4238-25.5405,6.9482-6.7051,15.4619-10.0581,25.54-10.0581,8.8574,0,16.7021,2.8042,23.5293,8.4121,7.3145,6.0156,10.9717,13.4521,10.9717,22.3101Zm-20.6025-1.707c-.4082-2.9258-1.9717-5.3833-4.6943-7.3755-2.7236-1.9907-5.75-2.9868-9.082-2.9868-3.4131,0-6.4609.9751-9.1436,2.9258-2.6816,1.9507-4.3887,4.4307-5.1201,7.4365,3.1699-.6494,5.6885-.9751,7.5586-.9751h12.9229c1.707,0,4.2246.3257,7.5586.9751Z"/><path class="cls-1" d="m1401.8477,96.7979h-21.9443v-40.231c0-5.2822-3.499-7.9243-10.4941-7.9243-1.9297,0-5.9902.7314-12.1816,2.1943v45.9609h-21.9434v-41.9375c0-1.9507-1.0176-3.5356-3.0479-4.7549l-5.7305-3.5352,11.8252-18.5308,3.7793,2.4385c1.3818.895,2.9268,1.3408,4.6328,1.3408,2.0312,0,5.4443-.6895,10.2412-2.0723,4.7939-1.3813,8.8994-2.0728,12.3125-2.0728,9.2656,0,17.0068,2.6631,23.2246,7.9854,6.2178,5.3242,9.3262,12.2939,9.3262,20.9077v40.231Z"/><path class="cls-1" d="m1463.0479,96.7979h-10.2412c-7.9658,0-14.0615-1.3809-18.2861-4.145-6.1777-4.063-9.2656-11.2959-9.2656-21.7002v-19.8716h-12.5566v-20.1157h2.4385c4.1445,0,6.8672-.6284,8.168-1.8896,1.2988-1.2588,1.9502-3.7583,1.9502-7.4976V0h21.9443v30.9653h15.8486v20.1157h-15.8486v20.481c0,2.1943.3848,3.5967,1.1582,4.2061.7715.6094,2.2549.9146,4.4492.9146h10.2412v20.1152Z"/></svg>